<!DOCTYPE svg PUBLIC "-//W3C//DTD SVG 1.1//EN" "http://www.w3.org/Graphics/SVG/1.1/DTD/svg11.dtd">
<!-- Uploaded to: SVG Repo, www.svgrepo.com, Transformed by: SVG Repo Mixer Tools -->
<svg version="1.1" id="Layer_1" xmlns="http://www.w3.org/2000/svg" xmlns:xlink="http://www.w3.org/1999/xlink" viewBox="0 0 496.156 496.156" xml:space="preserve" width="150px" height="150px" fill="#000000">
<g id="SVGRepo_bgCarrier" stroke-width="0"/>
<g id="SVGRepo_tracerCarrier" stroke-linecap="round" stroke-linejoin="round"/>
<g id="SVGRepo_iconCarrier"> <path style="fill:#E5AA17;" d="M0,248.08C0,111.06,111.069,0.002,248.074,0.002c137.013,0,248.082,111.059,248.082,248.078 c0,137.005-111.069,248.074-248.082,248.074C111.069,496.154,0,385.085,0,248.08z"/> <g> <rect x="125.768" y="232.258" style="fill:#FFFFFF;" width="244.62" height="159.85"/> <path style="fill:#FFFFFF;" d="M341.797,332.218c-7.712,0-13.964-6.252-13.964-13.964V182.269 c0-43.977-35.778-79.755-79.755-79.755s-79.754,35.778-79.754,79.755c0,7.712-6.252,13.964-13.964,13.964 s-13.964-6.252-13.964-13.964c0-59.376,48.306-107.683,107.682-107.683s107.683,48.307,107.683,107.683v135.984 C355.761,325.966,349.509,332.218,341.797,332.218z"/> </g> <path style="fill:#E5AA17;" d="M274.717,301.354c0-14.715-11.926-26.64-26.639-26.64c-14.712,0-26.639,11.925-26.639,26.64 c0,9.357,4.83,17.583,12.129,22.334c0,4.243,0,9.407,0,11.45c0,8.015,6.496,14.509,14.51,14.509s14.51-6.494,14.51-14.509 c0-2.043,0-7.207,0-11.449C269.887,318.937,274.717,310.712,274.717,301.354z"/> </g>
</svg>